<svg xmlns="http://www.w3.org/2000/svg" viewBox="0 0 512 512">
  <defs><linearGradient id="g" x1="0" y1="0" x2="1" y2="1"><stop offset="0" stop-color="#be3a67"/><stop offset="1" stop-color="#e0875f"/></linearGradient></defs>
  <rect width="512" height="512" rx="112" fill="url(#g)"/>
  <rect x="120" y="120" width="210" height="270" rx="30" fill="#fff" opacity=".35" transform="rotate(-12 225 255)"/>
  <rect x="160" y="110" width="210" height="280" rx="30" fill="#fff"/>
  <path fill="none" stroke="url(#g)" stroke-width="18" stroke-linecap="round" stroke-linejoin="round" d="M232 190c7 14 19 21 33 21s26-7 33-21l38 17c6 3 8 9 6 15l-10 22c-3 6-9 8-14 6l-10-5v74c0 7-5 12-12 12h-62c-7 0-12-5-12-12v-74l-10 5c-5 2-11 0-14-6l-10-22c-2-6 0-12 6-15z"/>
</svg>
